<mxfile host="Electron" agent="Mozilla/5.0 (Windows NT 10.0; Win64; x64) AppleWebKit/537.36 (KHTML, like Gecko) draw.io/25.0.1 Chrome/128.0.6613.186 Electron/32.2.6 Safari/537.36" version="25.0.1">
  <diagram id="C5RBs43oDa-KdzZeNtuy" name="Page-1">
    <mxGraphModel dx="1434" dy="836" grid="1" gridSize="10" guides="1" tooltips="1" connect="1" arrows="1" fold="1" page="1" pageScale="1" pageWidth="827" pageHeight="1169" math="0" shadow="0">
      <root>
        <mxCell id="WIyWlLk6GJQsqaUBKTNV-0" />
        <mxCell id="WIyWlLk6GJQsqaUBKTNV-1" parent="WIyWlLk6GJQsqaUBKTNV-0" />
        <mxCell id="EOR2vMdPIWTWCc5BXjVF-1" style="edgeStyle=orthogonalEdgeStyle;rounded=0;orthogonalLoop=1;jettySize=auto;html=1;" edge="1" parent="WIyWlLk6GJQsqaUBKTNV-1" source="EOR2vMdPIWTWCc5BXjVF-0">
          <mxGeometry relative="1" as="geometry">
            <mxPoint x="414" y="100" as="targetPoint" />
          </mxGeometry>
        </mxCell>
        <mxCell id="EOR2vMdPIWTWCc5BXjVF-0" value="Start" style="ellipse;whiteSpace=wrap;html=1;" vertex="1" parent="WIyWlLk6GJQsqaUBKTNV-1">
          <mxGeometry x="376" y="20" width="76" height="40" as="geometry" />
        </mxCell>
        <mxCell id="EOR2vMdPIWTWCc5BXjVF-2" value="Getting weather data by location" style="text;html=1;align=center;verticalAlign=middle;whiteSpace=wrap;rounded=0;" vertex="1" parent="WIyWlLk6GJQsqaUBKTNV-1">
          <mxGeometry x="50" y="25" width="110" height="30" as="geometry" />
        </mxCell>
        <mxCell id="EOR2vMdPIWTWCc5BXjVF-6" style="edgeStyle=orthogonalEdgeStyle;rounded=0;orthogonalLoop=1;jettySize=auto;html=1;" edge="1" parent="WIyWlLk6GJQsqaUBKTNV-1" source="EOR2vMdPIWTWCc5BXjVF-5">
          <mxGeometry relative="1" as="geometry">
            <mxPoint x="414" y="200" as="targetPoint" />
          </mxGeometry>
        </mxCell>
        <mxCell id="EOR2vMdPIWTWCc5BXjVF-5" value="&lt;font style=&quot;font-size: 10px;&quot;&gt;Location = INPUT &quot;Enter desired location&quot;&lt;/font&gt;" style="shape=parallelogram;perimeter=parallelogramPerimeter;whiteSpace=wrap;html=1;fixedSize=1;" vertex="1" parent="WIyWlLk6GJQsqaUBKTNV-1">
          <mxGeometry x="346" y="100" width="136" height="60" as="geometry" />
        </mxCell>
        <mxCell id="EOR2vMdPIWTWCc5BXjVF-9" style="edgeStyle=orthogonalEdgeStyle;rounded=0;orthogonalLoop=1;jettySize=auto;html=1;" edge="1" parent="WIyWlLk6GJQsqaUBKTNV-1" source="EOR2vMdPIWTWCc5BXjVF-7">
          <mxGeometry relative="1" as="geometry">
            <mxPoint x="418" y="320" as="targetPoint" />
          </mxGeometry>
        </mxCell>
        <mxCell id="EOR2vMdPIWTWCc5BXjVF-7" value="QUERY search request(&quot;openweatherforecastapi + location&quot;)" style="rounded=0;whiteSpace=wrap;html=1;" vertex="1" parent="WIyWlLk6GJQsqaUBKTNV-1">
          <mxGeometry x="320" y="200" width="196" height="80" as="geometry" />
        </mxCell>
        <mxCell id="EOR2vMdPIWTWCc5BXjVF-11" value="False" style="edgeStyle=orthogonalEdgeStyle;rounded=0;orthogonalLoop=1;jettySize=auto;html=1;" edge="1" parent="WIyWlLk6GJQsqaUBKTNV-1" source="EOR2vMdPIWTWCc5BXjVF-10">
          <mxGeometry relative="1" as="geometry">
            <mxPoint x="550" y="360" as="targetPoint" />
          </mxGeometry>
        </mxCell>
        <mxCell id="EOR2vMdPIWTWCc5BXjVF-15" value="True" style="edgeStyle=orthogonalEdgeStyle;rounded=0;orthogonalLoop=1;jettySize=auto;html=1;" edge="1" parent="WIyWlLk6GJQsqaUBKTNV-1" source="EOR2vMdPIWTWCc5BXjVF-10">
          <mxGeometry relative="1" as="geometry">
            <mxPoint x="418" y="450" as="targetPoint" />
          </mxGeometry>
        </mxCell>
        <mxCell id="EOR2vMdPIWTWCc5BXjVF-10" value="&amp;nbsp;Location match?" style="rhombus;whiteSpace=wrap;html=1;" vertex="1" parent="WIyWlLk6GJQsqaUBKTNV-1">
          <mxGeometry x="338" y="320" width="160" height="80" as="geometry" />
        </mxCell>
        <mxCell id="EOR2vMdPIWTWCc5BXjVF-12" value="OUTPUT Error message &quot;Location data invalid please input again.&quot;)" style="shape=parallelogram;perimeter=parallelogramPerimeter;whiteSpace=wrap;html=1;fixedSize=1;" vertex="1" parent="WIyWlLk6GJQsqaUBKTNV-1">
          <mxGeometry x="540" y="340" width="120" height="60" as="geometry" />
        </mxCell>
        <mxCell id="EOR2vMdPIWTWCc5BXjVF-13" value="" style="endArrow=none;html=1;rounded=0;" edge="1" parent="WIyWlLk6GJQsqaUBKTNV-1">
          <mxGeometry width="50" height="50" relative="1" as="geometry">
            <mxPoint x="599.5" y="340" as="sourcePoint" />
            <mxPoint x="600" y="90" as="targetPoint" />
          </mxGeometry>
        </mxCell>
        <mxCell id="EOR2vMdPIWTWCc5BXjVF-14" value="" style="endArrow=classic;html=1;rounded=0;" edge="1" parent="WIyWlLk6GJQsqaUBKTNV-1">
          <mxGeometry width="50" height="50" relative="1" as="geometry">
            <mxPoint x="600" y="90" as="sourcePoint" />
            <mxPoint x="420" y="90" as="targetPoint" />
          </mxGeometry>
        </mxCell>
        <mxCell id="EOR2vMdPIWTWCc5BXjVF-17" style="edgeStyle=orthogonalEdgeStyle;rounded=0;orthogonalLoop=1;jettySize=auto;html=1;" edge="1" parent="WIyWlLk6GJQsqaUBKTNV-1" source="EOR2vMdPIWTWCc5BXjVF-16">
          <mxGeometry relative="1" as="geometry">
            <mxPoint x="418" y="550" as="targetPoint" />
          </mxGeometry>
        </mxCell>
        <mxCell id="EOR2vMdPIWTWCc5BXjVF-16" value="QUERY forecast_data(Temperature,&amp;nbsp; Humidity, weather_Icon.png)" style="rounded=0;whiteSpace=wrap;html=1;" vertex="1" parent="WIyWlLk6GJQsqaUBKTNV-1">
          <mxGeometry x="328" y="450" width="180" height="70" as="geometry" />
        </mxCell>
        <mxCell id="EOR2vMdPIWTWCc5BXjVF-19" style="edgeStyle=orthogonalEdgeStyle;rounded=0;orthogonalLoop=1;jettySize=auto;html=1;" edge="1" parent="WIyWlLk6GJQsqaUBKTNV-1" source="EOR2vMdPIWTWCc5BXjVF-18">
          <mxGeometry relative="1" as="geometry">
            <mxPoint x="418" y="650" as="targetPoint" />
          </mxGeometry>
        </mxCell>
        <mxCell id="EOR2vMdPIWTWCc5BXjVF-18" value="OUTPUT (forecast_data)" style="shape=parallelogram;perimeter=parallelogramPerimeter;whiteSpace=wrap;html=1;fixedSize=1;" vertex="1" parent="WIyWlLk6GJQsqaUBKTNV-1">
          <mxGeometry x="342" y="555" width="152" height="60" as="geometry" />
        </mxCell>
        <mxCell id="EOR2vMdPIWTWCc5BXjVF-21" style="edgeStyle=orthogonalEdgeStyle;rounded=0;orthogonalLoop=1;jettySize=auto;html=1;" edge="1" parent="WIyWlLk6GJQsqaUBKTNV-1" source="EOR2vMdPIWTWCc5BXjVF-20">
          <mxGeometry relative="1" as="geometry">
            <mxPoint x="422" y="740" as="targetPoint" />
          </mxGeometry>
        </mxCell>
        <mxCell id="EOR2vMdPIWTWCc5BXjVF-20" value="Query document.(forecast_data)" style="rounded=0;whiteSpace=wrap;html=1;" vertex="1" parent="WIyWlLk6GJQsqaUBKTNV-1">
          <mxGeometry x="362" y="650" width="120" height="60" as="geometry" />
        </mxCell>
        <mxCell id="EOR2vMdPIWTWCc5BXjVF-22" value="End" style="ellipse;whiteSpace=wrap;html=1;" vertex="1" parent="WIyWlLk6GJQsqaUBKTNV-1">
          <mxGeometry x="384" y="740" width="76" height="40" as="geometry" />
        </mxCell>
        <mxCell id="EOR2vMdPIWTWCc5BXjVF-23" value="Function will query a search in the api to locate if the location entered is valid in it to find its weather data." style="text;html=1;align=center;verticalAlign=middle;whiteSpace=wrap;rounded=0;" vertex="1" parent="WIyWlLk6GJQsqaUBKTNV-1">
          <mxGeometry x="70" y="220" width="180" height="40" as="geometry" />
        </mxCell>
        <mxCell id="EOR2vMdPIWTWCc5BXjVF-24" value="" style="endArrow=none;html=1;rounded=0;shape=link;" edge="1" parent="WIyWlLk6GJQsqaUBKTNV-1">
          <mxGeometry width="50" height="50" relative="1" as="geometry">
            <mxPoint x="260" y="330" as="sourcePoint" />
            <mxPoint x="260" y="160" as="targetPoint" />
          </mxGeometry>
        </mxCell>
        <mxCell id="EOR2vMdPIWTWCc5BXjVF-25" value="" style="endArrow=none;html=1;rounded=0;shape=link;" edge="1" parent="WIyWlLk6GJQsqaUBKTNV-1">
          <mxGeometry width="50" height="50" relative="1" as="geometry">
            <mxPoint x="540" y="750" as="sourcePoint" />
            <mxPoint x="540" y="630" as="targetPoint" />
          </mxGeometry>
        </mxCell>
        <mxCell id="EOR2vMdPIWTWCc5BXjVF-26" value="Data will be documented for offline viewing" style="text;html=1;align=center;verticalAlign=middle;whiteSpace=wrap;rounded=0;" vertex="1" parent="WIyWlLk6GJQsqaUBKTNV-1">
          <mxGeometry x="560" y="680" width="180" height="40" as="geometry" />
        </mxCell>
        <mxCell id="EOR2vMdPIWTWCc5BXjVF-27" value="Will gather up forecast_data function to display the api data and a weather icon based on weather e.g. rainy cloud" style="text;html=1;align=center;verticalAlign=middle;whiteSpace=wrap;rounded=0;" vertex="1" parent="WIyWlLk6GJQsqaUBKTNV-1">
          <mxGeometry x="560" y="465" width="180" height="40" as="geometry" />
        </mxCell>
        <mxCell id="EOR2vMdPIWTWCc5BXjVF-28" value="" style="endArrow=none;html=1;rounded=0;shape=link;" edge="1" parent="WIyWlLk6GJQsqaUBKTNV-1">
          <mxGeometry width="50" height="50" relative="1" as="geometry">
            <mxPoint x="540" y="530" as="sourcePoint" />
            <mxPoint x="540" y="440" as="targetPoint" />
          </mxGeometry>
        </mxCell>
      </root>
    </mxGraphModel>
  </diagram>
</mxfile>
